<?xml version="1.0" encoding="utf-8"?>
<!-- Generator: Adobe Illustrator 24.0.1, SVG Export Plug-In . SVG Version: 6.00 Build 0)  -->
<svg version="1.1" id="Layer_1" xmlns="http://www.w3.org/2000/svg" xmlns:xlink="http://www.w3.org/1999/xlink" x="0px" y="0px"
	 viewBox="0 0 286.2 51" style="enable-background:new 0 0 286.2 51;" xml:space="preserve">
<style type="text/css">
	.st0{fill-rule:evenodd;clip-rule:evenodd;fill:#414042;}
	.st1{fill-rule:evenodd;clip-rule:evenodd;fill:#1D71B8;}
</style>
<path class="st0" d="M56.5,14.3c3,0,5.3,0.8,6.8,2.4s2.3,4,2.3,7.1v15.3c0,0.4-0.1,0.7-0.3,0.9c-0.2,0.2-0.5,0.3-0.8,0.3
	s-0.6-0.1-0.8-0.3c-0.2-0.2-0.3-0.5-0.3-0.9v-15c0-2.7-0.5-4.7-1.6-5.9c-1.1-1.2-2.8-1.8-5.2-1.8c-2.7,0-4.8,0.8-6.4,2.5
	c-1.6,1.6-2.4,3.8-2.4,6.6v13.7c0,0.4-0.1,0.7-0.3,0.9s-0.5,0.3-0.8,0.3s-0.6-0.1-0.8-0.3s-0.3-0.5-0.3-0.9V4.4
	c0-0.4,0.1-0.7,0.3-0.9s0.5-0.3,0.8-0.3s0.6,0.1,0.8,0.3s0.3,0.5,0.3,0.9v15c0.8-1.6,1.9-2.9,3.4-3.7C52.8,14.7,54.6,14.3,56.5,14.3
	z M37.3,15.2c0.2-0.5,0.5-0.8,0.9-0.8c0.3,0,0.6,0.1,0.9,0.4c0.2,0.3,0.3,0.6,0.2,0.9l-8.7,23.4c-0.2,0.6-0.7,0.9-1.4,0.9
	c-0.3,0-0.6-0.1-0.8-0.2c-0.2-0.2-0.4-0.4-0.5-0.7l-8.2-21.3l-8.1,21.3c-0.1,0.3-0.3,0.5-0.6,0.7C10.8,40,10.5,40,10.2,40
	s-0.6-0.1-0.8-0.2c-0.2-0.2-0.4-0.4-0.6-0.7L0.1,15.8c-0.1-0.4-0.1-0.7,0.2-1s0.6-0.5,1-0.5c0.5,0,0.7,0.2,0.9,0.7l8,22l8.3-21.7
	c0.1-0.3,0.3-0.5,0.5-0.7s0.5-0.2,0.7-0.2c0.3,0,0.5,0.1,0.8,0.2c0.2,0.2,0.4,0.4,0.5,0.7L29.1,37L37.3,15.2z M74.7,40
	c0.2,0.2,0.5,0.3,0.8,0.3s0.6-0.1,0.8-0.3c0.2-0.2,0.3-0.5,0.3-0.9V15.6c0-0.3-0.1-0.6-0.3-0.8c-0.2-0.2-0.5-0.3-0.8-0.3
	s-0.6,0.1-0.8,0.3c-0.2,0.2-0.3,0.5-0.3,0.8v23.6C74.4,39.5,74.5,39.8,74.7,40z M75.5,8.2c-0.5,0-1-0.2-1.4-0.5s-0.6-0.8-0.6-1.4
	s0.2-1.1,0.5-1.4c0.4-0.3,0.8-0.5,1.4-0.5s1,0.2,1.4,0.5s0.5,0.8,0.5,1.4s-0.2,1-0.6,1.4C76.5,8,76,8.2,75.5,8.2z M96.9,39.4
	c0-0.6-0.4-1-1.1-1l-1.4-0.1c-1.9-0.2-3.4-0.8-4.3-1.8s-1.4-2.7-1.4-5V16.8h6.9c0.3,0,0.5-0.1,0.6-0.3c0.2-0.2,0.2-0.4,0.2-0.6
	c0-0.3-0.1-0.5-0.3-0.7c-0.2-0.2-0.4-0.3-0.6-0.3h-6.9V8c0-0.4-0.1-0.7-0.3-0.9c-0.2-0.2-0.5-0.3-0.8-0.3s-0.6,0.1-0.8,0.3
	c-0.2,0.2-0.3,0.5-0.3,0.9v6.9h-4.3c-0.2,0-0.5,0.1-0.6,0.3c-0.2,0.2-0.3,0.4-0.3,0.7c0,0.2,0.1,0.5,0.3,0.6
	c0.2,0.2,0.4,0.3,0.6,0.3h4.3v14.6c0,2.9,0.6,5.1,1.8,6.5c1.2,1.4,3.1,2.2,5.7,2.4l1.4,0.1C96.4,40.5,96.9,40.1,96.9,39.4z
	 M120.9,35.2c0.2,0,0.4,0.1,0.6,0.3c0.2,0.2,0.3,0.4,0.3,0.7s-0.1,0.7-0.4,1c-0.3,0.3-0.7,0.7-1.4,1.1c-2.5,1.5-5.1,2.2-7.7,2.2
	c-3.8,0-6.8-1.2-8.9-3.5c-2.2-2.3-3.2-5.5-3.2-9.6c0-2.6,0.5-4.9,1.5-6.9s2.3-3.5,4.1-4.6c1.8-1.1,3.8-1.6,6.1-1.6
	c3.2,0,5.7,1,7.5,3.1c1.8,2.1,2.8,4.9,2.8,8.5c0,0.6-0.1,1.1-0.4,1.4c-0.2,0.3-0.7,0.4-1.3,0.4h-17.9c0,3.4,0.9,6,2.6,7.9
	c1.7,1.8,4,2.8,7.1,2.8c1.7,0,3-0.2,4.1-0.7s2.2-1,3.2-1.8C120.2,35.4,120.7,35.2,120.9,35.2z M105.3,18.8c1.6-1.6,3.7-2.5,6.4-2.5
	c2.6,0,4.6,0.8,6,2.4s2.2,3.9,2.2,6.9h-17.4C102.8,22.7,103.7,20.5,105.3,18.8z"/>
<path class="st0" d="M164.3,39.9c1.4,0.4,2.7,0.6,4.1,0.6c2.8,0,5.1-0.6,6.8-1.9c1.7-1.3,2.6-2.9,2.6-5c0-1.3-0.3-2.4-0.8-3.2
	c-0.5-0.8-1.4-1.6-2.7-2.2s-3.1-1.2-5.5-1.8c-1.7-0.4-3-0.8-3.9-1.2c-0.9-0.4-1.6-0.9-1.9-1.5c-0.4-0.6-0.6-1.3-0.6-2.2
	c0-1.5,0.6-2.7,1.8-3.6s2.8-1.4,4.7-1.4c1.5,0,2.7,0.2,3.7,0.7s1.9,1,2.8,1.7c0.6,0.5,1.1,0.8,1.4,0.8c0.2,0,0.4-0.1,0.6-0.3
	c0.2-0.2,0.3-0.4,0.3-0.6c0-0.4-0.1-0.8-0.4-1.1c-0.3-0.4-0.8-0.8-1.4-1.3c-0.9-0.6-1.9-1.1-3.1-1.5c-1.2-0.3-2.4-0.5-3.7-0.5
	c-2.7,0-4.8,0.7-6.5,2c-1.7,1.4-2.5,3.1-2.5,5.3c0,1.8,0.7,3.2,2,4.3c1.3,1.1,3.5,2,6.6,2.7c1.8,0.4,3.2,0.8,4.2,1.3
	c1,0.4,1.7,0.9,2.1,1.5c0.4,0.6,0.6,1.3,0.6,2.2c0,1.5-0.6,2.7-1.8,3.5s-2.9,1.2-5.2,1.2c-1.7,0-3-0.2-4.1-0.7s-2.1-1.1-3.1-1.8
	c-0.1-0.1-0.3-0.2-0.6-0.4s-0.5-0.3-0.7-0.3s-0.5,0.1-0.6,0.3c-0.2,0.2-0.3,0.4-0.3,0.7c0,0.4,0.1,0.7,0.4,1
	c0.2,0.3,0.7,0.7,1.4,1.1C161.7,38.9,163,39.5,164.3,39.9z M202.2,15.9c-1.7-1.1-3.7-1.6-5.9-1.6c-2.1,0-3.9,0.5-5.4,1.4
	s-2.6,2.2-3.4,4v-4.1c0-0.3-0.1-0.6-0.3-0.8s-0.5-0.3-0.8-0.3s-0.6,0.1-0.8,0.3s-0.3,0.5-0.3,0.8v33c0,0.8,0.4,1.2,1.1,1.2
	c0.3,0,0.6-0.1,0.8-0.3s0.3-0.5,0.3-0.9V35c0.8,1.8,1.9,3.1,3.4,4.1s3.3,1.4,5.4,1.4c2.2,0,4.2-0.5,5.9-1.6s3-2.6,4-4.5
	c0.9-2,1.4-4.2,1.4-6.8s-0.5-4.9-1.4-6.9C205.2,18.6,203.9,17,202.2,15.9z M196.2,38.3c2.8,0,5-0.9,6.6-2.8c1.6-1.9,2.3-4.6,2.3-8
	s-0.8-6.2-2.3-8.1c-1.6-1.9-3.7-2.9-6.5-2.9s-5,0.9-6.6,2.8c-1.5,1.9-2.3,4.6-2.3,8.1s0.8,6.2,2.3,8.1
	C191.3,37.4,193.4,38.3,196.2,38.3z M233,23.6c0-6.2-2.9-9.3-8.7-9.3c-1.4,0-2.9,0.2-4.3,0.6c-1.4,0.4-2.8,0.9-4,1.7
	c-1.2,0.7-1.8,1.4-1.8,2.1c0,0.3,0.1,0.5,0.3,0.7s0.4,0.3,0.6,0.3c0.3,0,0.6-0.1,1.1-0.4c0.4-0.3,0.7-0.5,0.9-0.6
	c0.8-0.6,1.8-1,3.1-1.5s2.8-0.6,4.4-0.6c2.1,0,3.7,0.6,4.7,1.7s1.5,2.9,1.5,5.4v2.2h-1c-4.1,0-7.3,0.2-9.5,0.7
	c-2.3,0.5-3.9,1.2-4.9,2.2s-1.5,2.5-1.5,4.3c0,1.4,0.4,2.7,1.2,3.8c0.8,1.2,1.8,2.1,3.2,2.7c1.3,0.7,2.8,1,4.4,1
	c1.8,0,3.5-0.4,4.9-1.3c1.4-0.9,2.5-2.1,3.3-3.7v3.6c0,0.3,0.1,0.6,0.3,0.9c0.2,0.2,0.5,0.3,0.8,0.3s0.6-0.1,0.8-0.3
	s0.3-0.5,0.3-0.9V23.6H233z M222.5,38.3c1.6,0,3-0.4,4.2-1.1s2.2-1.8,2.9-3.1s1.1-2.8,1.1-4.5v-1.9h-1c-3.6,0-6.4,0.1-8.3,0.4
	c-1.9,0.3-3.2,0.8-4,1.5s-1.1,1.8-1.1,3.1c0,1.6,0.6,2.9,1.8,3.9C219.3,37.8,220.7,38.3,222.5,38.3z M245.5,38.9
	c1.7,1.1,3.7,1.6,5.9,1.6c1.3,0,2.6-0.2,3.9-0.6c1.3-0.4,2.4-1,3.3-1.6c0.7-0.6,1.2-1,1.4-1.2c0.2-0.3,0.4-0.6,0.4-0.9
	c0-0.2-0.1-0.5-0.3-0.6c-0.2-0.2-0.4-0.3-0.6-0.3s-0.7,0.2-1.4,0.7c-0.9,0.7-1.9,1.3-2.9,1.8s-2.3,0.7-3.7,0.7c-2.9,0-5.1-1-6.7-2.9
	c-1.6-1.9-2.4-4.6-2.4-8c0-3.5,0.8-6.2,2.4-8.2s3.9-3,6.8-3c1.4,0,2.6,0.2,3.6,0.7s1.9,1,2.8,1.8c0.3,0.2,0.5,0.4,0.8,0.5
	c0.2,0.2,0.4,0.2,0.6,0.2s0.4-0.1,0.6-0.3c0.2-0.2,0.3-0.4,0.3-0.6c0-0.4-0.1-0.7-0.4-1.1s-0.7-0.8-1.4-1.3c-0.9-0.7-2-1.2-3.2-1.5
	s-2.5-0.5-3.7-0.5c-2.3,0-4.3,0.5-6,1.6c-1.8,1.1-3.1,2.6-4.1,4.6s-1.4,4.3-1.4,6.9s0.5,4.8,1.4,6.8
	C242.4,36.3,243.7,37.8,245.5,38.9z M285.3,35.2c0.2,0,0.5,0.1,0.6,0.3c0.2,0.2,0.3,0.4,0.3,0.7s-0.1,0.7-0.4,1s-0.7,0.7-1.4,1.1
	c-2.5,1.5-5.1,2.2-7.7,2.2c-3.8,0-6.8-1.2-8.9-3.5c-2.2-2.3-3.2-5.5-3.2-9.6c0-2.6,0.5-4.9,1.5-6.9s2.3-3.5,4.1-4.6
	c1.8-1.1,3.8-1.6,6.1-1.6c3.2,0,5.7,1,7.5,3.1s2.8,4.9,2.8,8.5c0,0.6-0.1,1.1-0.4,1.4c-0.2,0.3-0.7,0.4-1.3,0.4H267
	c0,3.4,0.9,6,2.6,7.9c1.7,1.8,4,2.8,7.1,2.8c1.7,0,3-0.2,4.1-0.7s2.2-1,3.2-1.8C284.6,35.4,285.1,35.2,285.3,35.2z M269.7,18.8
	c1.6-1.6,3.7-2.5,6.4-2.5c2.6,0,4.6,0.8,6,2.4s2.2,3.9,2.2,6.9h-17.4C267.2,22.7,268.1,20.5,269.7,18.8z"/>
<path class="st1" d="M141.6,30.1c2.2,0,4-1.8,4-4s-1.8-4-4-4s-4,1.8-4,4S139.4,30.1,141.6,30.1z"/>
</svg>
